# xmcd
#
# Track frame offsets:
#	150
#	13303
#	27412
#	48521
#	60637
#	74472
#	88252
#	102072
#	116510
#	129973
#	143614
#	156448
#	184437
#	196670
#	207172
#	232392
#	246700
#	261093
#	273137
#	284530
#
# Disc length: 4295 seconds
#
# Revision: 0
# Processed by: cddbd v1.5.1PL0 Copyright (c) Steve Scherf et al.
# Submitted via: dBpowerAMP V4.0
#
DISCID=3510c514
DTITLE=Various Artist - The World Of Blues [CD1]
DYEAR=2004
DGENRE=Blues
TTITLE0=Albert King - Won't Be Hangin' Around - 
TTITLE1=Howlin' Wolf - Smockestack Lightnin' - Diverse Artists
TTITLE2=T-Bone Walker - Stormy Monday - Diverse Artists
TTITLE3=John Lee Hooker - Boom Boom - Diverse Artists
TTITLE4=Albert Collins - Frosty - Diverse Artists
TTITLE5=Robert Nighthawk - Someday - Diverse Artists
TTITLE6=Little Walter - Come Back Baby - Diverse Artists
TTITLE7=Clarence 'Gatemouth' Brown - Cross My Heart - Diverse Artists
TTITLE8=Robert Johnson - Sweet Home Chicago - Diverse Artists
TTITLE9=Bo Diddley - I'm A Man - Diverse Artists
TTITLE10=Big Mama Thornton - Hound Dog - Diverse Artists
TTITLE11=Hound Dog Taylor - Sadie - Diverse Artists
TTITLE12=B.B. King - How Blue Can You Get - Diverse Artists
TTITLE13=J.B. Lenoir - Give Me One More Shot - Diverse Artists
TTITLE14=Luther Allison - Drivin' Wheel - Diverse Artists
TTITLE15=John Brim - Rattlesnake - Diverse Artists
TTITLE16=Otis Rush - So Many Roads, So Many Trains - Diverse Artists
TTITLE17=Lightnin' Hopkins - Shotgun Blues - Diverse Artists
TTITLE18=Son House - John The Revelator - Diverse Artists
TTITLE19=Bill Broonzy - Hollerin' The Blues - Diverse Artists
EXTD=The World Of Blues
EXTT0=
EXTT1=
EXTT2=
EXTT3=
EXTT4=
EXTT5=
EXTT6=
EXTT7=
EXTT8=
EXTT9=
EXTT10=
EXTT11=
EXTT12=
EXTT13=
EXTT14=
EXTT15=
EXTT16=
EXTT17=
EXTT18=
EXTT19=
PLAYORDER=
